<?xml version="1.0" standalone="no"?><!DOCTYPE svg PUBLIC "-//W3C//DTD SVG 1.1//EN" "http://www.w3.org/Graphics/SVG/1.1/DTD/svg11.dtd"><svg t="1502679186346" class="icon" style="" viewBox="0 0 1024 1024" version="1.1" xmlns="http://www.w3.org/2000/svg" p-id="1699" xmlns:xlink="http://www.w3.org/1999/xlink" width="16" height="16"><defs><style type="text/css"></style></defs><path d="M634.88 38.4h-588.8c-12.8 0-25.6 12.8-25.6 25.6v742.4c0 12.8 12.8 25.6 25.6 25.6h153.6v-76.8h-76.8c-12.8 0-25.6-12.8-25.6-25.6v-588.8c0-12.8 12.8-25.6 25.6-25.6h435.2c12.8 0 25.6 12.8 25.6 25.6v51.2h76.8v-128c0-12.8-10.24-25.6-25.6-25.6z" p-id="1700" fill="#ffffff"></path><path d="M583.68 755.2c0-128 102.4-230.4 230.4-230.4 7.68 0 17.92 0 25.6 2.56V217.6c0-12.8-12.8-25.6-25.6-25.6h-588.8c-12.8 0-25.6 12.8-25.6 25.6v742.4c0 12.8 12.8 25.6 25.6 25.6h588.8c-125.44 0-230.4-102.4-230.4-230.4z m-256-384c0-12.8 12.8-25.6 25.6-25.6h358.4c12.8 0 25.6 12.8 25.6 25.6v25.6c0 12.8-12.8 25.6-25.6 25.6h-358.4c-12.8 0-25.6-12.8-25.6-25.6v-25.6z m153.6 332.8c0 12.8-12.8 25.6-25.6 25.6h-102.4c-12.8 0-25.6-12.8-25.6-25.6v-25.6c0-12.8 12.8-25.6 25.6-25.6h102.4c12.8 0 25.6 12.8 25.6 25.6v25.6z m76.8-153.6c0 12.8-12.8 25.6-25.6 25.6h-179.2c-12.8 0-25.6-12.8-25.6-25.6v-25.6c0-12.8 12.8-25.6 25.6-25.6h179.2c12.8 0 25.6 12.8 25.6 25.6v25.6z" p-id="1701" fill="#ffffff"></path><path d="M778.24 852.48l-89.6-89.6c-10.24-10.24-10.24-25.6 0-35.84l17.92-17.92c10.24-10.24 25.6-10.24 35.84 0l89.6 89.6c10.24 10.24 10.24 25.6 0 35.84l-17.92 17.92c-10.24 10.24-25.6 10.24-35.84 0z" p-id="1702" fill="#ffffff"></path><path d="M796.16 870.4l-17.92-17.92c-10.24-10.24-10.24-25.6 0-35.84l163.84-163.84c10.24-10.24 25.6-10.24 35.84 0l17.92 17.92c10.24 10.24 10.24 25.6 0 35.84L832 870.4c-10.24 10.24-25.6 10.24-35.84 0z" p-id="1703" fill="#ffffff"></path></svg>