<?xml version="1.0" standalone="no"?><!DOCTYPE svg PUBLIC "-//W3C//DTD SVG 1.1//EN" "http://www.w3.org/Graphics/SVG/1.1/DTD/svg11.dtd"><svg t="1502877892674" class="icon" style="" viewBox="0 0 1024 1024" version="1.1" xmlns="http://www.w3.org/2000/svg" p-id="1929" xmlns:xlink="http://www.w3.org/1999/xlink" width="16" height="16"><defs><style type="text/css"></style></defs><path d="M549.321532 462.978723v-212.338383a504.374468 504.374468 0 0 1-30.371404-3.682042v-0.39217H517.032851 518.92834v0.39217h-1.503319c-0.043574 0.021787-0.39217 0.348596-0.718978 0.348596a1151.891064 1151.891064 0 0 1-41.984 4.836766v210.835063H37.212596v-169.243234c0-26.624 21.329702-47.953702 48.019064-47.953702h199.374978c-53.553021-11.198638-93.728681-34.097021-95.188425-76.386042-1.503319-49.827404 54.729532-130.331234 136.82383-111.964596 84.730553 19.06383 143.948255 84.621617 189.287489 140.789106 45.796766-57.256851 110.592-131.050213 199.04817-142.684595 73.945872-9.346723 134.971915 64.424851 127.128511 113.119319-6.732255 42.659404-47.670468 65.884596-99.741958 77.126808h196.804085c26.645787 0 47.975489 21.329702 47.97549 47.953702v169.243234H549.321532zM477.706894 969.226894H121.180596a43.574468 43.574468 0 0 1-43.509107-43.792341v-428.337021h400.035405v472.129362zM946.306723 925.45634a43.574468 43.574468 0 0 1-43.487319 43.835915H546.314894v-472.129361h399.970042v428.293446h0.021787z" fill="#FF6622" p-id="1930"></path></svg>