<?xml version="1.0" standalone="no"?><!DOCTYPE svg PUBLIC "-//W3C//DTD SVG 1.1//EN" "http://www.w3.org/Graphics/SVG/1.1/DTD/svg11.dtd"><svg t="1500279692663" class="icon" style="" viewBox="0 0 1205 1024" version="1.1" xmlns="http://www.w3.org/2000/svg" p-id="8484" xmlns:xlink="http://www.w3.org/1999/xlink" width="18.828125" height="16"><defs><style type="text/css"></style></defs><path d="M959.036235 0 998.279529 0C1018.307765 4.397176 1038.848 8.432941 1057.129412 18.130824 1125.827765 50.085647 1170.582588 126.373647 1165.944471 201.848471 1167.119059 244.946824 1147.994353 284.551529 1129.411765 322.228706 1078.362353 423.634824 1030.535529 526.607059 979.425882 627.952941 949.127529 574.795294 925.997176 517.933176 897.596235 463.781647 869.677176 402.913882 837.511529 344.124235 810.224941 283.015529 775.107765 211.275294 788.961882 118.723765 843.354353 60.295529 873.712941 27.919059 915.215059 6.625882 959.036235 0M964.999529 79.661176C934.219294 83.004235 906.179765 101.436235 888.741647 126.674824 849.287529 179.109647 863.232 265.396706 921.569882 298.134588 967.951059 330.661647 1038.064941 314.428235 1068.995765 267.926588 1091.493647 239.164235 1094.475294 200.131765 1087.216941 165.556706 1075.2 112.368941 1019.813647 71.137882 964.999529 79.661176Z" p-id="8485" fill="#369be9"></path><path d="M226.183529 393.908706C275.516235 447.066353 326.746353 498.447059 376.199529 551.484235 452.005647 499.651765 526.396235 445.831529 602.352941 394.270118 678.219294 445.741176 752.459294 499.531294 828.175059 551.213176 834.319059 544.828235 840.493176 538.473412 846.908235 532.389647 858.051765 560.338824 881.362824 586.752 877.778824 618.345412 875.911529 639.728941 879.796706 661.022118 883.772235 681.953882 899.885176 761.645176 914.552471 841.607529 929.761882 921.479529 988.129882 892.717176 1045.172706 861.334588 1102.817882 831.186824 1085.952 791.431529 1065.863529 753.152 1047.341176 714.149647 1043.696941 703.608471 1034.932706 692.615529 1039.299765 680.929882 1049.660235 653.492706 1064.267294 627.892706 1077.097412 601.539765 1120.858353 688.941176 1161.306353 777.938824 1204.705882 865.490824L1204.705882 867.026824C1104.323765 918.317176 1004.544 970.842353 905.155765 1024L901.601882 1024C808.508235 973.552941 714.059294 925.605647 620.724706 875.640471 611.418353 870.671059 599.883294 865.761882 590.125176 872.899765 494.08 922.684235 398.185412 972.920471 302.802824 1024L299.248941 1024C200.041412 970.661647 100.111059 918.648471 0 867.026824L0 865.520941C75.866353 708.547765 149.955765 550.701176 226.183529 393.908706M421.406118 614.159059C404.389647 620.784941 406.287059 640.843294 402.010353 655.209412 387.222588 739.478588 368.941176 823.115294 354.996706 907.504941 424.538353 872.237176 492.453647 833.716706 562.959059 800.376471 563.230118 705.807059 563.772235 611.267765 562.567529 516.728471 514.921412 548.352 468.841412 582.234353 421.406118 614.159059M641.776941 517.330824C641.325176 611.568941 641.144471 705.837176 641.957647 800.105412 711.951059 834.469647 779.986824 872.598588 849.709176 907.504941 835.162353 823.235765 817.152 739.599059 802.484706 655.36 798.780235 642.891294 800.346353 626.657882 787.787294 618.857412 740.412235 583.228235 690.898824 550.520471 641.776941 517.330824M101.616941 831.096471C158.599529 862.569412 217.118118 891.301647 274.552471 921.931294 292.653176 830.403765 309.549176 738.605176 327.740235 647.077647 328.673882 635.090824 334.426353 619.098353 324.638118 609.099294 300.453647 580.457412 273.197176 554.646588 246.302118 528.624941 197.270588 629.067294 149.263059 730.021647 101.616941 831.096471Z" p-id="8486" fill="#369be9"></path></svg>