<?xml version="1.0" standalone="no"?><!DOCTYPE svg PUBLIC "-//W3C//DTD SVG 1.1//EN" "http://www.w3.org/Graphics/SVG/1.1/DTD/svg11.dtd"><svg t="1502679196147" class="icon" style="" viewBox="0 0 1024 1024" version="1.1" xmlns="http://www.w3.org/2000/svg" p-id="1871" xmlns:xlink="http://www.w3.org/1999/xlink" width="16" height="16"><defs><style type="text/css"></style></defs><path d="M0 806.4c0 56.32 46.08 102.4 102.4 102.4h819.2c56.32 0 102.4-46.08 102.4-102.4v-460.8H0v460.8z m768-332.8s102.4 122.88 102.4 179.2-46.08 102.4-102.4 102.4-102.4-46.08-102.4-102.4 102.4-179.2 102.4-179.2z m-640 0h409.6v51.2H128v-51.2z m0 102.4h256v51.2H128v-51.2zM921.6 115.2H102.4c-56.32 0-102.4 46.08-102.4 102.4v76.8h1024v-76.8c0-56.32-46.08-102.4-102.4-102.4z" p-id="1872" fill="#ffffff"></path></svg>