<?xml version="1.0" standalone="no"?><!DOCTYPE svg PUBLIC "-//W3C//DTD SVG 1.1//EN" "http://www.w3.org/Graphics/SVG/1.1/DTD/svg11.dtd"><svg t="1501921035543" class="icon" style="" viewBox="0 0 1024 1024" version="1.1" xmlns="http://www.w3.org/2000/svg" p-id="1855" xmlns:xlink="http://www.w3.org/1999/xlink" width="16" height="16"><defs><style type="text/css"></style></defs><path d="M978.488889 381.155556V224.711111c0-42.666667-34.133333-79.644444-79.644445-79.644444H136.533333C91.022222 145.066667 56.888889 179.2 56.888889 224.711111v159.288889c73.955556 0 130.844444 59.733333 130.844444 130.844444 0 73.955556-59.733333 130.844444-130.844444 130.844445v159.288889C56.888889 847.644444 91.022222 881.777778 136.533333 881.777778h762.311111c42.666667 0 79.644444-34.133333 79.644445-79.644445v-159.288889c-73.955556 0-130.844444-59.733333-130.844445-130.844444 0-71.111111 56.888889-130.844444 130.844445-130.844444z m-685.511111-56.888889l56.888889 110.933333 56.888889-110.933333h51.2l-71.111112 128h48.355556v25.6h-59.733333v31.288889h62.577777v25.6h-62.577777v54.044444h-45.511111v-54.044444H264.533333v-25.6h59.733334v-31.288889H264.533333v-25.6H312.888889l-71.111111-128h51.2zM728.177778 711.111111H281.6c-22.755556 0-39.822222-17.066667-39.822222-39.822222s17.066667-39.822222 39.822222-39.822222h446.577778c22.755556 0 39.822222 17.066667 39.822222 39.822222s-17.066667 39.822222-39.822222 39.822222z m0-159.288889H568.888889c-22.755556 0-39.822222-17.066667-39.822222-39.822222s17.066667-39.822222 39.822222-39.822222h159.288889c22.755556 0 39.822222 17.066667 39.822222 39.822222s-17.066667 39.822222-39.822222 39.822222z m0-156.444444H568.888889c-22.755556 0-39.822222-17.066667-39.822222-39.822222s17.066667-39.822222 39.822222-39.822223h159.288889c22.755556 0 39.822222 17.066667 39.822222 39.822223s-17.066667 39.822222-39.822222 39.822222z" fill="#369BE9" p-id="1856"></path></svg>