<?xml version="1.0" standalone="no"?><!DOCTYPE svg PUBLIC "-//W3C//DTD SVG 1.1//EN" "http://www.w3.org/Graphics/SVG/1.1/DTD/svg11.dtd"><svg t="1499610291193" class="icon" style="" viewBox="0 0 1024 1024" version="1.1" xmlns="http://www.w3.org/2000/svg" p-id="1364" xmlns:xlink="http://www.w3.org/1999/xlink" width="16" height="16"><defs><style type="text/css"></style></defs><path d="M3.498958 867.826986c0 35.757646 28.418368 64.688057 63.578632 64.688057l889.84482 0c35.074923 0 63.578632-28.930411 63.578632-64.688057L1020.501042 350.237186 3.498958 350.237186 3.498958 867.826986zM511.95733 544.301358l95.325277 0 0 64.688057L511.95733 608.989416 511.95733 544.301358zM67.07759 544.301358l413.133094 0 0 64.688057L67.07759 608.989416 67.07759 544.301358zM67.07759 706.021502l349.554463 0 0 64.688057L67.07759 770.709559 67.07759 706.021502zM956.92241 91.484957 67.07759 91.484957c-35.074923 0-63.578632 28.930411-63.578632 64.688057l0 136.11801 1017.002084 0L1020.501042 156.258355C1020.501042 120.500708 991.997333 91.484957 956.92241 91.484957z" p-id="1365" fill="#8a8a8a"></path></svg>