<?xml version="1.0" standalone="no"?><!DOCTYPE svg PUBLIC "-//W3C//DTD SVG 1.1//EN" "http://www.w3.org/Graphics/SVG/1.1/DTD/svg11.dtd"><svg t="1501810917361" class="icon" style="" viewBox="0 0 1024 1024" version="1.1" xmlns="http://www.w3.org/2000/svg" p-id="2923" xmlns:xlink="http://www.w3.org/1999/xlink" width="16" height="16"><defs><style type="text/css"></style></defs><path d="M922.983973 201.505064a46.174098 46.174098 0 0 0 31.185391 12.078764c12.706752 0 25.367505-5.201898 34.548325-15.429698 17.233663-19.188625 15.743693-48.791047-3.327935-66.117709l-60.113826-54.620933c0-0.012-0.012-0.012-0.012-0.012l-60.427819-54.911927c-19.071628-17.314662-48.512052-15.825691-65.745716 3.362934-17.233663 19.176625-15.732693 48.779047 3.339935 66.117709l25.5765 23.237546-46.988082 51.816988c-53.480955-39.889221-115.606742-68.724658-182.993426-83.246374-1.710967-14.603715-6.597871-31.616382-18.43164-46.999082C567.386918 20.909592 543.579383 1.650968 499.535243 0.033999c-0.627988-0.023-1.256975-0.046999-1.872963-0.022999-40.797203 0.383993-64.325744 17.826652-76.881498 32.395367-14.242722 16.511678-20.095608 35.677303-22.330564 51.280998C184.3304 129.650468 23.271545 320.567739 23.271545 548.536286c0 262.16688 212.97984 475.461714 474.763728 475.461714s474.751728-213.294834 474.751727-475.461714c0-122.495608-46.510092-234.298424-122.751602-318.684775l47.046081-51.874987 25.902494 23.52854zM498.035273 930.371829c-210.45489 0-381.672545-171.287655-381.672546-381.835543 0-210.547888 171.217656-381.835542 381.672546-381.835542s381.660546 171.287655 381.660545 381.835542c0.001 210.547888-171.205656 381.835542-381.660545 381.835543z m81.454409-381.835543c0 44.439132-36.689283 80.453429-80.872421 80.453429s-79.418449-36.014297-79.418448-80.453429c0-26.949474 11.345778-50.746009 34.618323-65.349723v-188.776313c0-25.855495 20.840593-46.813086 46.545091-46.813086s46.545091 20.957591 46.545091 46.813086v188.776313c23.273545 14.602715 32.582364 38.40025 32.582364 65.349723z" p-id="2924" fill="#ffffff"></path></svg>