<?xml version="1.0" standalone="no"?><!DOCTYPE svg PUBLIC "-//W3C//DTD SVG 1.1//EN" "http://www.w3.org/Graphics/SVG/1.1/DTD/svg11.dtd"><svg t="1502700281270" class="icon" style="" viewBox="0 0 1024 1024" version="1.1" xmlns="http://www.w3.org/2000/svg" p-id="1952" xmlns:xlink="http://www.w3.org/1999/xlink" width="16" height="16"><defs><style type="text/css"></style></defs><path d="M512 85.333333c236.088889 0 426.666667 190.577778 426.666667 426.666667s-190.577778 426.666667-426.666667 426.666667S85.333333 748.088889 85.333333 512 275.911111 85.333333 512 85.333333m0-85.333333C230.4 0 0 230.4 0 512s230.4 512 512 512 512-230.4 512-512S793.6 0 512 0z" p-id="1953" fill="#818181"></path><path d="M637.155556 278.755556c28.444444 25.6 45.511111 59.733333 45.511111 105.244444 0 36.977778-8.533333 65.422222-28.444445 91.022222-8.533333 8.533333-28.444444 28.444444-62.577778 59.733334-11.377778 8.533333-22.755556 22.755556-28.444444 36.977777-8.533333 14.222222-11.377778 31.288889-11.377778 48.355556v11.377778h-85.333333v-11.377778c0-28.444444 5.688889-54.044444 14.222222-71.111111 8.533333-19.911111 36.977778-51.2 85.333333-93.866667l8.533334-11.377778c14.222222-17.066667 19.911111-34.133333 19.911111-51.2 0-22.755556-5.688889-42.666667-19.911111-56.888889-14.222222-17.066667-34.133333-22.755556-59.733334-22.755555-31.288889 0-54.044444 8.533333-68.266666 28.444444-11.377778 17.066667-17.066667 39.822222-17.066667 73.955556h-85.333333c0-54.044444 17.066667-96.711111 48.355555-128s73.955556-45.511111 128-45.511111c48.355556-2.844444 88.177778 11.377778 116.622223 36.977778zM548.977778 682.666667c11.377778 11.377778 17.066667 22.755556 17.066666 39.822222 0 17.066667-5.688889 28.444444-17.066666 39.822222-11.377778 11.377778-25.6 14.222222-42.666667 14.222222s-28.444444-5.688889-39.822222-17.066666c-11.377778-8.533333-17.066667-22.755556-17.066667-39.822223 0-17.066667 5.688889-31.288889 17.066667-39.822222 11.377778-11.377778 22.755556-14.222222 39.822222-14.222222 17.066667 0 31.288889 5.688889 42.666667 17.066667z" p-id="1954" fill="#818181"></path></svg>