<?xml version="1.0" standalone="no"?><!DOCTYPE svg PUBLIC "-//W3C//DTD SVG 1.1//EN" "http://www.w3.org/Graphics/SVG/1.1/DTD/svg11.dtd"><svg t="1499666937510" class="icon" style="" viewBox="0 0 1024 1024" version="1.1" xmlns="http://www.w3.org/2000/svg" p-id="2542" xmlns:xlink="http://www.w3.org/1999/xlink" width="32" height="32"><defs><style type="text/css"></style></defs><path d="M960.2 95c0-17.7-14.3-32-32-32H94.5c-0.3 0-0.6 0-0.8 0.1-0.2 0-0.5 0-0.7 0.1-0.3 0-0.6 0.1-1 0.1-0.2 0-0.4 0-0.6 0.1-0.3 0.1-0.7 0.1-1 0.2-0.2 0-0.3 0.1-0.5 0.1-0.4 0.1-0.7 0.1-1 0.2-0.2 0-0.3 0.1-0.5 0.1-0.3 0.1-0.7 0.2-1 0.3-0.2 0-0.3 0.1-0.5 0.1l-0.9 0.3c-0.2 0.1-0.4 0.1-0.6 0.2-0.3 0.1-0.6 0.2-0.8 0.3l-0.6 0.3c-0.2 0.1-0.5 0.2-0.7 0.3-0.2 0.1-0.5 0.2-0.7 0.3l-0.6 0.3c-0.3 0.1-0.5 0.3-0.8 0.4l-0.6 0.3c-0.3 0.2-0.5 0.3-0.8 0.5-0.2 0.1-0.3 0.2-0.5 0.3-0.3 0.2-0.5 0.3-0.8 0.5-0.2 0.1-0.3 0.2-0.5 0.4-0.3 0.2-0.5 0.4-0.8 0.5-0.2 0.1-0.4 0.3-0.6 0.4-0.2 0.2-0.5 0.3-0.7 0.5-0.2 0.2-0.4 0.4-0.7 0.6-0.2 0.1-0.3 0.3-0.5 0.4l-0.9 0.9-0.2 0.2c-0.4 0.4-0.7 0.8-1.1 1.2-0.1 0.2-0.3 0.3-0.4 0.5-0.2 0.2-0.4 0.5-0.6 0.7-0.2 0.2-0.4 0.5-0.6 0.7-0.1 0.2-0.3 0.3-0.4 0.5-0.2 0.3-0.4 0.6-0.6 0.8-0.1 0.1-0.2 0.3-0.3 0.4l-0.6 0.9c-0.1 0.1-0.2 0.3-0.3 0.4-0.2 0.3-0.3 0.6-0.5 0.9-0.1 0.2-0.2 0.3-0.3 0.5-0.1 0.3-0.3 0.6-0.4 0.8l-0.3 0.6c-0.1 0.3-0.2 0.5-0.3 0.8-0.1 0.2-0.2 0.5-0.3 0.7-0.1 0.2-0.2 0.5-0.3 0.7-0.1 0.3-0.2 0.5-0.3 0.8-0.1 0.2-0.1 0.4-0.2 0.6l-0.3 0.9c-0.1 0.2-0.1 0.3-0.1 0.5-0.1 0.3-0.2 0.7-0.3 1 0 0.2-0.1 0.3-0.1 0.5-0.1 0.3-0.2 0.7-0.2 1 0 0.2-0.1 0.3-0.1 0.5-0.1 0.3-0.1 0.7-0.2 1.1 0 0.2 0 0.4-0.1 0.6 0 0.3-0.1 0.7-0.1 1 0 0.3 0 0.6-0.1 0.8 0 0.2 0 0.5-0.1 0.7v3.2c0 0.2 0 0.5 0.1 0.7 0 0.3 0 0.5 0.1 0.8 0 0.3 0.1 0.6 0.1 0.9 0 0.2 0.1 0.4 0.1 0.6 0 0.3 0.1 0.6 0.2 1 0 0.2 0.1 0.4 0.1 0.6 0.1 0.3 0.1 0.7 0.2 1 0 0.2 0.1 0.4 0.1 0.5l0.3 0.9c0.1 0.2 0.1 0.4 0.2 0.6l0.3 0.9c0.1 0.2 0.1 0.4 0.2 0.6 0.1 0.3 0.2 0.5 0.3 0.8 0.1 0.2 0.2 0.5 0.3 0.7 0.1 0.2 0.2 0.5 0.3 0.7 0.1 0.3 0.2 0.5 0.4 0.8l0.3 0.6c0.1 0.3 0.3 0.6 0.4 0.8 0.1 0.2 0.2 0.3 0.3 0.5 0.2 0.3 0.3 0.6 0.5 0.9 0.1 0.2 0.2 0.3 0.3 0.5 0.2 0.3 0.4 0.6 0.5 0.9 0.1 0.2 0.2 0.3 0.3 0.5 0.2 0.3 0.4 0.5 0.6 0.8 0.1 0.2 0.3 0.3 0.4 0.5 0.2 0.2 0.4 0.5 0.6 0.7 0.2 0.2 0.3 0.4 0.5 0.6 0.2 0.2 0.3 0.4 0.5 0.6 0.3 0.3 0.5 0.6 0.8 0.8l0.3 0.3L384 429.2v498.4c0 17.7 14.3 32 32 32s32-14.3 32-32V422.8c0-1.4-0.1-2.7-0.3-4 0.8-9.1-2.2-18.5-9.2-25.5L173.1 127h677.7L585.4 393.3c-7.1 7.1-10.1 16.7-9.2 25.9-0.1 1.2-0.2 2.4-0.2 3.6v312.8c0 17.7 14.3 32 32 32s32-14.3 32-32V429.1L948.1 120c7.4-5.9 12.1-14.9 12.1-25z" fill="#bfbfbf" p-id="2543"></path></svg>