<?xml version="1.0" standalone="no"?><!DOCTYPE svg PUBLIC "-//W3C//DTD SVG 1.1//EN" "http://www.w3.org/Graphics/SVG/1.1/DTD/svg11.dtd"><svg t="1501636793384" class="icon" style="" viewBox="0 0 1024 1024" version="1.1" xmlns="http://www.w3.org/2000/svg" p-id="1356" xmlns:xlink="http://www.w3.org/1999/xlink" width="16" height="16"><defs><style type="text/css"></style></defs><path d="M829.7 195.4c-84.6-84.6-197-131.1-316.5-131.1s-232 46.6-316.5 131.1c-84.6 84.5-131.1 197-131.1 316.5 0 119.6 46.6 232 131.1 316.5 84.5 84.6 197 131.1 316.5 131.1s232-46.6 316.5-131.1c84.6-84.5 131.1-197 131.1-316.5 0-119.6-46.6-232-131.1-316.5z m-33.3 599.7c-75.7 75.7-176.3 117.3-283.3 117.3S305.5 870.7 229.8 795c-75.7-75.7-117.3-176.3-117.3-283.3s41.7-207.6 117.3-283.3C305.5 152.7 406.1 111 513.1 111s207.6 41.7 283.3 117.4c75.7 75.7 117.4 176.3 117.4 283.3-0.1 107.2-41.7 207.8-117.4 283.4zM636.6 292.5c-29.6-26.4-68.3-39.6-116-39.6-54.1 0-96.9 15.9-128.3 47.7-31.4 31.8-47.1 75.1-47.1 130h0.1c0.8 17.2 15.1 30.9 32.5 30.9s31.7-13.7 32.5-30.9v-1.2-0.4-0.2c0.5-81.4 36.3-122.1 107.3-122.1 27.4 0 50.1 8 67.9 23.9 17.8 15.9 26.7 36.3 26.7 61.2 0 29-16.5 58.3-49.6 88.1L538 501.8c-24.1 21.5-39.6 40.3-46.4 56.2-6.8 15.9-10.2 41.6-10.2 76.9v0.1c-0.1 0.9-0.1 1.8-0.1 2.7 0 16.7 13.6 30.3 30.3 30.3 16 0 29-12.3 30.2-28l0.1-0.1 0.3-11.2c0-36.4 17.3-68.7 51.9-96.9 58-47.4 87-92.8 87-136.2 0-42.3-14.8-76.7-44.5-103.1zM513.1 702c-10.7 0-21.4 4.4-28.9 12-7.6 7.6-12 18.2-12 28.9s4.4 21.4 12 28.9c7.6 7.6 18.2 12 28.9 12s21.4-4.4 28.9-12c7.6-7.6 12-18.2 12-28.9s-4.4-21.4-12-28.9c-7.5-7.6-18.1-12-28.9-12z" p-id="1357" fill="#B0B0B0"></path></svg>