<?xml version="1.0" standalone="no"?><!DOCTYPE svg PUBLIC "-//W3C//DTD SVG 1.1//EN" "http://www.w3.org/Graphics/SVG/1.1/DTD/svg11.dtd"><svg t="1500895739325" class="icon" style="" viewBox="0 0 1024 1024" version="1.1" xmlns="http://www.w3.org/2000/svg" p-id="1186" xmlns:xlink="http://www.w3.org/1999/xlink" width="16" height="16"><defs><style type="text/css"></style></defs><path d="M609.885 930.118l6.19 0.046c129.583 0 236.452-98.304 251.998-225.187 79.406-14.103 139.776-84.386 139.776-168.96 0-84.247-59.904-154.344-138.845-168.866-13.87-189.906-170.357-339.69-361.38-339.69-191.115 0-347.508 149.784-361.471 339.69C67.165 381.58 7.215 451.677 7.215 535.97c0 94.766 75.729 171.566 169.146 171.566 20.806 0 40.727-3.77 59.112-10.705V375.156a166.26 166.26 0 0 0-42.402-9.96C207.686 201.82 342.993 73.96 507.625 73.96c164.584 0 299.892 127.86 314.507 291.188a166.26 166.26 0 0 0-42.589 9.96v321.63a166.593 166.593 0 0 0 41.286 9.821c-15.825 100.399-101.562 177.012-204.8 177.012h-3.212a69.818 69.818 0 1 0-2.932 46.5z" p-id="1187" fill="#1296db"></path></svg>