<?xml version="1.0" standalone="no"?><!DOCTYPE svg PUBLIC "-//W3C//DTD SVG 1.1//EN" "http://www.w3.org/Graphics/SVG/1.1/DTD/svg11.dtd"><svg t="1499398489459" class="icon" style="" viewBox="0 0 1441 1024" version="1.1" xmlns="http://www.w3.org/2000/svg" p-id="18524" xmlns:xlink="http://www.w3.org/1999/xlink" width="45.03125" height="32"><defs><style type="text/css"></style></defs><path d="M823.018035 556.119267C818.042003 556.119267 812.433594 555.580509 806.554918 554.490627 800.944739 553.227635 799.860154 550.060438 802.661709 544.817696 803.93177 542.918794 808.817712 535.323174 817.676352 522.564307 826.543827 509.634093 836.218557 496.248144 847.33999 481.957786 858.284784 467.487251 868.144989 454.011213 877.915107 441.349498 887.141165 428.599459 892.922688 420.643494 894.916986 417.296122 900.2516 408.974506 896.994304 398.935926 885.512518 387.178618 883.608307 385.004154 879.356515 381.74687 872.940845 377.406768 866.97208 373.246845 861.181728 370.086714 856.02729 368.002336 847.527232 364.932294 841.551405 364.296381 837.845437 366.463782 834.499821 368.54816 829.889443 373.246845 824.736768 380.754141 822.652384 383.831248 817.497942 391.60704 808.996122 403.731763 800.764563 416.20624 791.905923 429.055197 782.492624 442.889818 773.178246 456.812762 764.498016 469.205981 756.722195 480.14897 748.766198 491.459373 744.419018 497.965107 743.514608 500.229661 741.527376 504.299498 737.455757 506.108314 731.667168 505.023731 725.966902 503.933846 722.172614 501.312477 720.185382 497.062464 718.915318 494.985152 714.396794 488.740848 705.985062 478.520326 697.573328 468.667222 688.617533 457.358586 679.391475 444.428371 670.167184 431.489328 661.038282 419.919261 652.170806 408.608858 643.215014 397.397373 637.336339 389.79999 634.086109 385.369802 624.674576 367.368189 614.821437 361.584922 604.51256 368.002336 597.183645 372.164026 590.580736 376.682534 584.792147 381.388285 579.091882 386.364298 573.668947 390.344048 568.514506 393.601331 558.115539 400.833066 556.576982 410.513059 563.808739 422.174982 581.444765 443.336723 597.183645 462.968742 610.749821 481.143466 622.14152 495.977882 632.996224 510.08983 643.580666 524.283034 653.889542 537.854458 660.126803 545.810426 662.121101 548.163302 664.286742 552.234906 662.121101 554.490627 655.876774 554.490627L637.336339 554.490627C632.181901 554.490627 624.494403 554.6708 614.73135 555.214861 604.69097 555.760685 595.554998 555.580509 587.14503 554.490627 578.911706 554.490627 572.040298 556.387763 566.795773 560.825018 561.731421 564.896621 560.102774 570.22945 562.270182 576.556778 563.269981 580.994029 563.808739 587.321354 563.808739 595.642973L563.808739 615.08775C563.808739 620.242173 565.257213 623.229194 568.514506 623.767952 571.681715 624.223686 575.207507 624.402096 579.457533 624.402096L670.077098 624.402096C682.380272 624.402096 688.617533 627.025235 688.617533 632.36513L688.617533 662.567421C688.617533 668.087491 687.71312 670.708864 685.547478 670.708864L677.762829 670.708864 662.031014 670.708864 630.918902 670.708864 599.626618 670.708864 580.906006 670.708864C574.751766 669.626045 570.680147 671.254688 568.514506 675.319226 566.527274 679.754714 564.988714 684.543485 563.808739 689.795059 562.724154 695.308064 562.724154 700.193987 563.808739 704.802582 564.988714 709.776829 565.257213 713.848432 565.257213 716.837219 565.257213 730.760163 572.040298 737.633312 585.60647 737.633312L679.391475 737.633312C684.823245 737.633312 687.80321 738.357546 688.707622 739.896099 689.707421 741.524742 690.336269 745.050522 690.336269 750.29503 691.426154 755.634925 691.784739 765.129446 691.060506 778.875747 690.61183 792.805754 690.246179 801.756218 690.246179 806.191702 690.246179 817.853626 697.029267 823.642192 710.505354 823.642192L760.613638 823.642192C768.928218 823.642192 773.178246 821.020819 773.178246 815.507814L773.178246 804.564829 773.178246 751.92367C773.178246 741.166157 777.974099 735.826262 787.11007 735.826262L801.220304 735.826262C808.452061 735.826262 816.773709 735.646086 825.453939 734.921853 834.499821 734.56327 842.911555 734.197622 851.053024 734.197622L871.400518 734.197622C885.871104 734.197622 893.468512 728.863024 893.468512 718.464096L893.468512 683.280493C893.468512 673.600496 888.314074 668.811725 877.915107 668.811725L787.11007 668.811725C776.89128 671.067446 771.37119 668.811725 771.37119 662.477334 771.37119 659.497379 771.191014 655.425776 770.645187 650.629939 770.108192 645.841168 770.018106 641.58409 770.018106 637.153901 770.018106 633.082298 771.646752 629.736691 775.35272 627.749469 779.154074 625.486682 783.038451 624.402096 787.11007 624.402096L879.356515 624.402096C889.577072 624.402096 894.916986 620.876317 894.916986 613.280701L894.916986 575.02529C894.916986 570.775277 893.10993 566.70367 889.396896 562.453658 885.690928 558.016406 881.26249 556.119267 876.196371 556.119267L823.018035 556.119267ZM1199.433411 449.217142C1187.040147 452.384339 1177.365414 458.628643 1170.486941 467.398931 1163.793942 476.62319 1160.26815 485.759126 1159.543917 495.522144 1159.183565 505.023731 1161.80671 514.608339 1167.3268 524.283034 1173.295565 533.694534 1181.61721 540.565917 1193.277405 544.817696 1203.503261 549.247885 1211.459258 555.580509 1216.613696 563.895059 1221.94831 572.582326 1224.756934 581.532787 1225.293926 591.124464 1225.839754 600.707306 1223.852522 609.843242 1219.780902 618.164858 1215.709286 626.66665 1209.376637 633.17945 1201.062058 637.243987 1175.102621 650.181267 1161.448125 665.554442 1160.633802 683.550755 1159.363741 701.552368 1169.314032 715.835658 1190.117264 726.690326 1199.521731 730.940339 1207.119142 737.453139 1212.722253 746.498989 1218.510842 755.546605 1221.589725 765.041123 1222.223875 775.259878 1222.762634 785.120048 1220.775402 794.344307 1216.52361 802.121866 1212.453757 810.443482 1205.580582 815.686224 1196.354525 819.123683 1183.782851 822.290877 1174.288298 827.982291 1167.236714 836.581235 1160.723891 844.895789 1157.196333 854.029958 1156.652272 863.436157 1155.928035 873.29633 1158.549414 882.700762 1164.42809 892.202349 1170.128355 901.875277 1179.264326 909.831245 1191.648758 916.255725 1200.157645 920.505738 1205.939168 927.19871 1209.652202 936.066154 1213.356403 945.28511 1214.626464 953.882291 1213.722051 962.382314 1212.453757 970.884106 1209.652202 978.659898 1204.856346 985.352874 1200.247734 992.404432 1193.733146 995.751802 1185.233088 995.751802L368.549469 995.751802 368.549469 199.150007 1194.637555 199.150007C1202.959203 199.150007 1209.652202 202.407291 1214.440989 209.548937 1219.056669 216.427386 1221.499638 224.024769 1222.223875 232.616648 1222.762634 241.206761 1220.775402 249.618465 1216.52361 258.028403 1212.453757 266.440107 1205.580582 272.408848 1196.354525 275.485956 1186.950058 278.736174 1179.352646 284.076069 1173.564061 291.495044 1167.775472 298.815099 1164.518179 307.226803 1163.34527 316.092477 1162.440858 325.221347 1164.608266 333.818528 1169.672618 342.410406 1175.012531 351.000518 1183.782851 357.334909 1196.354525 361.489536 1205.580582 365.746614 1213.356403 372.073939 1218.966579 380.664051 1224.569693 389.254166 1228.012461 397.851344 1228.371046 406.801805 1228.916874 416.116154 1226.744166 424.43777 1222.223875 432.580976 1217.608195 440.356768 1210.010787 446.057014 1199.433411 449.217142L1199.433411 449.217142ZM1402.378413 473.097411C1394.24401 475.35313 1388.088003 479.790384 1384.383805 486.841942 1381.036422 493.534918 1378.863712 501.312477 1378.863712 509.634093 1378.863712 518.314294 1380.946333 526.455734 1384.383805 534.321613 1388.088003 542.464822 1394.24401 548.073213 1402.378413 551.145021 1410.700061 554.490627 1417.393059 560.825018 1422.010502 570.22945 1426.797526 579.904147 1429.420672 589.854406 1429.786323 600.618982 1430.325085 611.196323 1428.88191 621.422141 1425.89488 630.826576 1422.727674 640.321098 1418.117293 647.284333 1411.970122 651.624435 1391.16689 664.37447 1380.858013 678.664829 1380.858013 694.58383 1380.858013 710.502829 1391.076803 726.600237 1411.970122 742.248976 1416.22015 745.596346 1419.926118 751.474998 1423.632083 759.699462 1427.164941 768.38673 1428.972 776.798432 1428.972 785.478634 1428.972 793.978659 1427.074854 801.217459 1422.81776 807.544784 1418.565968 814.05935 1411.335974 817.226544 1400.937008 817.226544L1316.644794 817.226544C1310.676029 817.226544 1307.143171 816.68072 1306.784586 815.417728 1306.238762 814.327846 1306.964762 812.609117 1308.861907 810.077834 1310.946294 807.276288 1313.477584 804.377587 1316.644794 801.031984 1319.804934 797.871853 1322.337994 794.158832 1324.600787 789.908819 1329.755226 775.079702 1329.755226 762.327901 1324.600787 751.743494 1319.266173 740.978918 1310.676029 732.120307 1297.91888 724.703101 1289.602534 720.451322 1283.448298 713.758346 1280.102678 704.534086 1276.396714 695.673712 1274.94824 686.359366 1275.492301 676.767693 1275.850886 667.092995 1277.569622 658.771379 1280.826915 651.354173 1283.994122 643.756787 1288.789978 638.423958 1294.756973 635.256762 1303.258794 632.089568 1309.405968 626.210912 1313.477584 617.79921 1317.727613 609.477594 1319.804934 600.34872 1319.804934 590.758813 1319.804934 581.174205 1317.997875 572.396851 1315.19632 564.440883 1312.029114 556.484918 1307.418736 550.874758 1300.90591 547.797651 1292.764442 543.367462 1286.256918 537.220314 1281.461062 528.533046 1276.755296 520.396906 1274.499568 510.902384 1274.499568 500.229661 1274.499568 489.465082 1276.396714 479.246326 1280.646739 469.115894 1284.896768 458.987226 1291.411357 450.755699 1300.815824 444.428371 1307.330413 440.176592 1312.484851 434.388026 1316.554704 426.970819 1320.984909 419.373437 1322.882051 411.597645 1323.786464 403.095853 1324.332291 394.505738 1322.337994 386.364298 1318.990611 378.40833 1315.28641 370.35521 1308.771821 363.84241 1299.367354 358.507814 1289.148563 353.263306 1281.370976 345.390362 1276.755296 335.447168 1272.146685 325.318502 1269.703715 314.824186 1269.703715 304.335169 1269.703715 293.57059 1272.146685 283.622099 1276.755296 273.947402 1281.370976 264.542969 1287.885565 256.945586 1296.200144 251.515603 1313.83617 242.111169 1323.786464 228.993716 1325.146614 212.626045 1326.773494 196.170052 1325.5052 180.878133 1321.253405 167.313774 1317.907789 156.556261 1311.848938 147.054675 1302.71297 138.554649 1293.218413 129.96277 1281.192566 125.802845 1266.714915 125.802845L517.143226 125.802845 517.143226 0 1396.409651 0C1403.648477 0 1409.617238 2.711459 1414.771677 7.955967 1420.104528 13.295862 1423.632083 19.623188 1425.170643 27.130483 1426.797526 34.549458 1426.260531 42.235162 1423.541997 50.191129 1421.099027 58.064075 1416.130061 64.937225 1408.712829 70.270054 1402.378413 75.611716 1396.865389 82.304691 1392.249712 90.894804 1387.460922 99.396595 1385.198128 108.076795 1384.293715 117.210966 1383.928064 126.346903 1385.376538 135.207279 1388.365334 144.343216 1391.345299 153.298978 1397.045565 159.991953 1405.455533 164.241965 1417.12456 170.571057 1425.624618 179.346644 1431.227728 190.379719 1437.018083 201.502882 1440.005114 212.626045 1440.005114 223.65912 1440.005114 234.969523 1437.018083 245.276598 1431.324883 254.771119 1425.624618 264.445816 1417.751645 271.414352 1407.264355 275.485956 1395.775504 279.916144 1387.27368 285.884886 1382.209331 293.840853 1376.87648 301.892206 1374.253334 310.662494 1373.529098 320.066928 1372.98504 329.658602 1374.979338 338.972947 1379.497862 347.923411 1384.293715 357.059347 1391.891126 364.932294 1402.288326 371.259619 1412.687293 377.406768 1420.470176 385.90856 1425.080557 396.673139 1429.696234 407.167456 1431.593379 417.744794 1431.227728 428.509373 1430.690733 439.08671 1428.067587 448.856794 1423.45191 457.99273 1418.66312 466.853107 1411.87297 472.007526 1402.378413 473.097411L1402.378413 473.097411ZM129.604647 127.519808 129.604647 108.345292 129.604647 106.71665 129.604647 105.095074 129.604647 86.008879C129.604647 64.937225 137.829139 45.126796 153.838283 27.130483 169.845661 9.135937 187.393364 0 206.113977 0L421.727808 0 421.727808 127.519808 129.604647 127.519808ZM0 278.826261C0 250.162523 4.885942 229.717949 14.110233 217.331794 23.5147 205.118749 44.222545 199.150007 76.694805 199.150007L276.391346 199.150007 276.391346 995.571629 190.650659 995.571629C167.680019 995.571629 145.158052 995.393219 122.82156 994.847395 100.299593 994.48881 85.106539 994.123162 76.784893 994.123162 48.659814 995.213043 28.849315 990.417206 17.367528 979.654394 5.968763 969.07529 0.090088 948.727869 0.090088 919.05727L0.090088 689.795059C0.090088 678.12607 2.07732 669.260397 5.610178 663.657306 9.13597 657.868739 16.73338 653.797133 28.215167 651.624435 32.465195 651.624435 37.985285 649.995792 45.492607 646.835664 52.634279 643.488291 59.961425 638.333872 67.20025 631.455421 74.43201 624.582272 80.766423 615.721898 85.920863 604.413261 91.075302 593.380186 93.78677 579.904147 93.78677 563.806739 93.78677 539.385949 87.369334 520.396906 74.341922 506.556986 61.321575 492.810685 47.389752 484.669245 32.740757 482.772106 21.43208 480.694794 13.020347 477.071859 7.865907 472.373178 2.62138 467.398931 0 459.255722 0 447.595568L0 278.826261Z" p-id="18525" fill="#369BE9"></path></svg>