<?xml version="1.0" standalone="no"?><!DOCTYPE svg PUBLIC "-//W3C//DTD SVG 1.1//EN" "http://www.w3.org/Graphics/SVG/1.1/DTD/svg11.dtd"><svg t="1502679201377" class="icon" style="" viewBox="0 0 1024 1024" version="1.1" xmlns="http://www.w3.org/2000/svg" p-id="2040" xmlns:xlink="http://www.w3.org/1999/xlink" width="16" height="16"><defs><style type="text/css"></style></defs><path d="M691.2 601.6c-28.16 0-51.2 23.04-51.2 51.2 0 17.92 10.24 35.84 25.6 43.52v33.28h51.2v-33.28c15.36-7.68 25.6-25.6 25.6-43.52 0-28.16-23.04-51.2-51.2-51.2z" p-id="2041" fill="#ffffff"></path><path d="M921.6 115.2H102.4c-56.32 0-102.4 46.08-102.4 102.4v588.8c0 56.32 46.08 102.4 102.4 102.4h819.2c56.32 0 102.4-46.08 102.4-102.4v-588.8c0-56.32-46.08-102.4-102.4-102.4z m-563.2 332.8H102.4v-51.2h256v51.2z m102.4-153.6H102.4v-51.2h358.4v51.2z m435.2 512c0 12.8-12.8 25.6-25.6 25.6H512c-12.8 0-25.6-12.8-25.6-25.6v-281.6c0-12.8 12.8-25.6 25.6-25.6h76.8v-25.6c0-56.32 46.08-102.4 102.4-102.4s102.4 46.08 102.4 102.4v25.6h76.8c12.8 0 25.6 12.8 25.6 25.6v281.6z" p-id="2042" fill="#ffffff"></path><path d="M691.2 430.08c-23.04 0-43.52 20.48-43.52 43.52v25.6h87.04v-25.6c0-23.04-20.48-43.52-43.52-43.52z" p-id="2043" fill="#ffffff"></path></svg>