<?xml version="1.0" standalone="no"?><!DOCTYPE svg PUBLIC "-//W3C//DTD SVG 1.1//EN" "http://www.w3.org/Graphics/SVG/1.1/DTD/svg11.dtd"><svg t="1501466022625" class="icon" style="" viewBox="0 0 1024 1024" version="1.1" xmlns="http://www.w3.org/2000/svg" p-id="1096" xmlns:xlink="http://www.w3.org/1999/xlink" width="16" height="16"><defs><style type="text/css"></style></defs><path d="M512.499756 0.499756" p-id="1097" fill="#FFE400"></path><path d="M832.343582 448.281113l0-127.937531c0-176.644748-143.199079-319.843826-319.843826-319.843826s-319.843826 143.199079-319.843826 319.843826l0 127.937531-63.968765 0 0 575.718887 767.625183 0 0-575.718887L832.343582 448.281113zM544.484139 731.127004 544.484139 865.737277l-63.968765 0L480.515373 731.127004c-28.236213-12.340974-47.976574-40.502224-47.976574-73.288215 0-44.161437 35.79952-79.960957 79.960957-79.960957s79.960957 35.79952 79.960957 79.960957C592.460713 690.624781 572.720351 718.78603 544.484139 731.127004zM320.59346 448.281113l-31.984383 0 0-127.937531c0-59.803799 23.288629-116.027346 65.57598-158.314698C396.47241 119.741532 452.696957 96.452904 512.499756 96.452904c59.803799 0 116.027346 23.288629 158.314698 65.57598C713.101806 204.316236 736.390434 260.539783 736.390434 320.343582l0 127.937531-31.984383 0L320.59346 448.281113z" p-id="1098" fill="#FFE400"></path></svg>