<?xml version="1.0" standalone="no"?><!DOCTYPE svg PUBLIC "-//W3C//DTD SVG 1.1//EN" "http://www.w3.org/Graphics/SVG/1.1/DTD/svg11.dtd"><svg t="1500024383242" class="icon" style="" viewBox="0 0 1024 1024" version="1.1" xmlns="http://www.w3.org/2000/svg" p-id="4183" xmlns:xlink="http://www.w3.org/1999/xlink" width="16" height="16"><defs><style type="text/css"></style></defs><path d="M509.83 127.23c159.24 0 288.76 133.12 288.76 296.7 0 111.61-162.69 316.64-288.76 446.61-126.07-129.89-288.76-334.85-288.76-446.61 0-163.62 129.52-296.7 288.76-296.7m0 446.27c86.76 0 157.37-70.68 157.37-157.59s-70.65-157.55-157.37-157.55S352.5 329 352.5 416s70.57 157.55 157.33 157.55m0-508.11c-193.64 0-350.6 160.55-350.6 358.54s350.6 533.86 350.6 533.86 350.6-335.91 350.6-533.9-157-358.5-350.6-358.5m0 446.27A95.74 95.74 0 1 1 605.32 416a95.63 95.63 0 0 1-95.49 95.72" fill="#369be9" p-id="4184"></path></svg>