<?xml version="1.0" standalone="no"?><!DOCTYPE svg PUBLIC "-//W3C//DTD SVG 1.1//EN" "http://www.w3.org/Graphics/SVG/1.1/DTD/svg11.dtd"><svg t="1501920981834" class="icon" style="" viewBox="0 0 1024 1024" version="1.1" xmlns="http://www.w3.org/2000/svg" p-id="1747" xmlns:xlink="http://www.w3.org/1999/xlink" width="16" height="16"><defs><style type="text/css"></style></defs><path d="M859.022222 25.6h-682.666666c-48.355556 0-85.333333 36.977778-85.333334 85.333333v796.444445c0 45.511111 36.977778 85.333333 85.333334 85.333333s85.333333-39.822222 85.333333-85.333333c0 45.511111 36.977778 85.333333 85.333333 85.333333s85.333333-39.822222 85.333334-85.333333c0 45.511111 36.977778 85.333333 85.333333 85.333333s85.333333-39.822222 85.333333-85.333333c0 45.511111 36.977778 85.333333 85.333334 85.333333s85.333333-39.822222 85.333333-85.333333c0 45.511111 36.977778 85.333333 85.333333 85.333333s85.333333-39.822222 85.333334-85.333333v-796.444445c0-48.355556-39.822222-85.333333-85.333334-85.333333zM694.044444 284.444444c-5.688889 2.844444-8.533333 2.844444-8.533333 2.844445l-8.533333 5.688889-125.155556 164.977778h85.333334c5.688889 0 11.377778-2.844444 11.377777-2.844445l11.377778-5.688889 5.688889 5.688889c-2.844444 5.688889-2.844444 11.377778-5.688889 17.066667s-2.844444 11.377778-2.844444 17.066666c0 5.688889 0 11.377778 2.844444 17.066667l2.844445 14.222222-5.688889 5.688889c-5.688889-2.844444-8.533333-2.844444-8.533334-2.844444l-14.222222-2.844445h-85.333333v39.822223h85.333333c5.688889 0 11.377778-2.844444 11.377778-2.844445l11.377778-5.688889 5.688889 5.688889c-2.844444 5.688889-2.844444 11.377778-5.688889 17.066667 0 5.688889-2.844444 11.377778-2.844445 17.066666 0 5.688889 0 14.222222 2.844445 17.066667l2.844444 14.222222-5.688889 5.688889c-5.688889-2.844444-8.533333-2.844444-8.533333-2.844444l-14.222222-2.844445h-85.333334v82.488889c0 5.688889 0 8.533333 2.844445 8.533334l5.688889 14.222222-2.844445 8.533333c-5.688889-2.844444-11.377778-2.844444-17.066666-2.844444-5.688889 0-14.222222-2.844444-25.6-2.844445s-19.911111 0-25.6 2.844445l-14.222223 2.844444-5.688889-8.533333c2.844444-2.844444 2.844444-5.688889 2.844445-5.688889l5.688889-14.222222V625.777778h-82.488889c-8.533333 0-14.222222 2.844444-17.066667 2.844444l-5.688889-2.844444-5.688889-5.688889c2.844444-5.688889 2.844444-11.377778 5.688889-17.066667v-19.911111c0-8.533333 0-14.222222-2.844444-19.911111l-2.844445-14.222222 8.533334-5.688889c5.688889 2.844444 8.533333 5.688889 8.533333 5.688889l14.222222 5.688889h88.177778v-39.822223H398.222222c-8.533333 0-14.222222 2.844444-17.066666 2.844445l-11.377778 5.688889-5.688889-5.688889c2.844444-5.688889 2.844444-11.377778 5.688889-17.066667s0-11.377778 0-19.911111c0-8.533333 0-14.222222-2.844445-19.911111l-5.688889-5.688889 8.533334-5.688889c5.688889 2.844444 8.533333 5.688889 8.533333 5.688889l14.222222 5.688889h85.333334l-128-159.288889c-5.688889-2.844444-8.533333-5.688889-11.377778-5.688889l-8.533333-2.844444v-14.222222c8.533333 0 14.222222-2.844444 17.066666-2.844445 5.688889 0 11.377778-5.688889 19.911111-11.377778 8.533333-5.688889 14.222222-11.377778 17.066667-14.222222l8.533333-14.222222h8.533334v17.066667l5.688889 11.377777 105.244444 130.844445 96.711111-133.688889c2.844444-5.688889 2.844444-11.377778 2.844445-14.222222v-14.222223h8.533333c2.844444 5.688889 5.688889 8.533333 8.533333 11.377778 2.844444 2.844444 8.533333 8.533333 19.911111 14.222222 11.377778 5.688889 17.066667 11.377778 22.755556 11.377778l17.066667 2.844445v11.377777z" fill="#369BE9" p-id="1748"></path></svg>