<?xml version="1.0" standalone="no"?><!DOCTYPE svg PUBLIC "-//W3C//DTD SVG 1.1//EN" "http://www.w3.org/Graphics/SVG/1.1/DTD/svg11.dtd"><svg t="1501920627004" class="icon" style="" viewBox="0 0 1024 1024" version="1.1" xmlns="http://www.w3.org/2000/svg" p-id="1604" xmlns:xlink="http://www.w3.org/1999/xlink" width="16" height="16"><defs><style type="text/css"></style></defs><path d="M523.377778 284.444444m-199.111111 0a199.111111 199.111111 0 1 0 398.222222 0 199.111111 199.111111 0 1 0-398.222222 0Z" fill="#369BE9" p-id="1605"></path><path d="M566.044444 327.111111c-56.888889 54.044444-76.8 128-39.822222 159.288889s110.933333 17.066667 167.822222-39.822222 76.8-128 39.822223-159.288889-110.933333-17.066667-167.822223 39.822222z" fill="#369BE9" p-id="1606"></path><path d="M355.555556 446.577778c56.888889 54.044444 133.688889 73.955556 167.822222 39.822222 34.133333-34.133333 17.066667-105.244444-39.822222-159.288889s-133.688889-73.955556-167.822223-39.822222-17.066667 105.244444 39.822223 159.288889z" fill="#369BE9" p-id="1607"></path><path d="M352.711111 398.222222a199.111111 170.666667 90 1 0 341.333333 0 199.111111 170.666667 90 1 0-341.333333 0Z" fill="#369BE9" p-id="1608"></path><path d="M438.044444 568.888889h170.666667v170.666667h-170.666667zM950.044444 824.888889c0 62.577778-51.2 113.777778-113.777777 113.777778s-113.777778-51.2-113.777778-113.777778 113.777778-256 113.777778-256 113.777778 193.422222 113.777777 256z" fill="#369BE9" p-id="1609"></path><path d="M728.177778 659.911111c-65.422222-19.911111-119.466667-31.288889-119.466667-31.288889l-56.888889-5.688889v113.777778h-56.888889v-113.777778l-56.888889 5.688889S133.688889 679.822222 102.4 822.044444c-2.844444 8.533333-5.688889 17.066667-5.688889 28.444445 0 45.511111 45.511111 85.333333 99.555556 85.333333H711.111111c-25.6-28.444444-42.666667-68.266667-42.666667-108.088889 2.844444-34.133333 28.444444-99.555556 59.733334-167.822222z" fill="#369BE9" p-id="1610"></path></svg>