<?xml version="1.0" standalone="no"?><!DOCTYPE svg PUBLIC "-//W3C//DTD SVG 1.1//EN" "http://www.w3.org/Graphics/SVG/1.1/DTD/svg11.dtd"><svg t="1499415232466" class="icon" style="" viewBox="0 0 1024 1024" version="1.1" xmlns="http://www.w3.org/2000/svg" p-id="6397" xmlns:xlink="http://www.w3.org/1999/xlink" width="16" height="16"><defs><style type="text/css"></style></defs><path d="M628.352 663.264c0 0-11.648-21.824-11.648-46.56 0-7.104 0-17.856 0-29.504 55.008-32.416 98.688-89.28 121.696-159.52 23.744-7.328 41.216-29.28 41.216-55.36L779.616 302.56c0-20.064-10.176-37.76-25.632-48.224C742.432 115.904 684.704 11.648 512 11.648c-172.8 0-229.792 102.4-241.728 238.944-15.584 7.04-25.92 20.256-25.92 40.32l0 69.824c0 25.92 17.312 55.328 40.832 65.696 22.88 70.816 66.72 128.224 122.08 160.8 0 11.872 0 22.688 0 29.504 0 23.264-11.648 46.56-11.648 46.56C255.04 687.52 0 800 0 896s78.56 116.352 174.56 116.352l674.912 0C945.44 1012.352 1024 992 1024 896S767.04 686.56 628.352 663.264z" p-id="6398" fill="#369be9"></path></svg>