<?xml version="1.0" standalone="no"?><!DOCTYPE svg PUBLIC "-//W3C//DTD SVG 1.1//EN" "http://www.w3.org/Graphics/SVG/1.1/DTD/svg11.dtd"><svg t="1501668148501" class="icon" style="" viewBox="0 0 1024 1024" version="1.1" xmlns="http://www.w3.org/2000/svg" p-id="3348" xmlns:xlink="http://www.w3.org/1999/xlink" width="16" height="16"><defs><style type="text/css"></style></defs><path d="M881.627037 56.877512h-85.290671v113.755025H227.510049V56.877512H142.168183c-47.09929 0-85.290671 38.191381-85.290671 85.341866v796.336366c0 47.09929 38.191381 85.341866 85.290671 85.341866h739.510049c47.09929 0 85.290671-38.191381 85.290671-85.341866V142.219378c0-47.09929-38.191381-85.341866-85.290671-85.341866z m-654.116988 511.948805h455.071293v56.877513h-455.122488v-56.826318z m568.826317 227.561244H227.510049v-56.928707h568.826317v56.928707z m0-341.316268H227.510049V398.193781h568.826317v56.826317zM312.851915 113.755024h398.142586a28.464354 28.464354 0 0 0 28.464353-28.413158V28.464354A28.464354 28.464354 0 0 0 710.994501 0H312.851915a28.464354 28.464354 0 0 0-28.464354 28.464354v56.826317c0 15.716828 12.747525 28.464354 28.464354 28.464353z" p-id="3349" fill="#369be9"></path></svg>