<?xml version="1.0" standalone="no"?><!DOCTYPE svg PUBLIC "-//W3C//DTD SVG 1.1//EN" "http://www.w3.org/Graphics/SVG/1.1/DTD/svg11.dtd"><svg t="1500279072992" class="icon" style="" viewBox="0 0 1024 1024" version="1.1" xmlns="http://www.w3.org/2000/svg" p-id="6031" xmlns:xlink="http://www.w3.org/1999/xlink" width="16" height="16"><defs><style type="text/css"></style></defs><path d="M852.888877 715.009623V357.279173c0-103.389742-82.525552-187.502441-183.961802-187.502442-101.437274 0-183.962825 84.1127-183.962825 187.502442v2.656503h0.038886V670.688185c0 73.598228-58.290591 133.475967-129.935328 133.475968-71.647807 0-129.935328-59.880809-129.935328-133.475968V330.138022h94.212732L198.119243 120.197546 76.893274 330.138022h94.213755v340.54914c0 103.389742 82.525552 187.501418 183.962826 187.501418 101.438297 0 183.962825-84.113723 183.962825-187.501418V359.935676h-0.039909v-2.656503c0-73.598228 58.289568-133.474944 129.937374-133.474944 71.64576 0 129.934305 59.877739 129.934305 133.474944v357.73045h-94.213755l121.225969 209.9415 121.229038-209.9415H852.888877z" fill="#369be9" p-id="6032"></path></svg>