<?xml version="1.0" standalone="no"?><!DOCTYPE svg PUBLIC "-//W3C//DTD SVG 1.1//EN" "http://www.w3.org/Graphics/SVG/1.1/DTD/svg11.dtd"><svg t="1504662272347" class="icon" style="" viewBox="0 0 1024 1024" version="1.1" xmlns="http://www.w3.org/2000/svg" p-id="1992" xmlns:xlink="http://www.w3.org/1999/xlink" width="48" height="48"><defs><style type="text/css"></style></defs><path d="M512 116.736c217.088 0 393.216 176.128 393.216 395.264S729.088 907.264 512 907.264 118.784 729.088 118.784 512 294.912 116.736 512 116.736m0-14.336C286.72 102.4 102.4 286.72 102.4 512s184.32 409.6 409.6 409.6 409.6-184.32 409.6-409.6S737.28 102.4 512 102.4z" p-id="1993" fill="#ffffff"></path><path d="M512 151.552c198.656 0 360.448 161.792 360.448 360.448 0 198.656-161.792 360.448-360.448 360.448S151.552 710.656 151.552 512c0-198.656 161.792-360.448 360.448-360.448m0-8.192C309.248 143.36 143.36 309.248 143.36 512s165.888 368.64 368.64 368.64 368.64-165.888 368.64-368.64S714.752 143.36 512 143.36z" p-id="1994" fill="#ffffff"></path><path d="M225.28 368.64m-10.24 0a10.24 10.24 0 1 0 20.48 0 10.24 10.24 0 1 0-20.48 0Z" p-id="1995" fill="#ffffff"></path><path d="M266.24 368.64m-10.24 0a10.24 10.24 0 1 0 20.48 0 10.24 10.24 0 1 0-20.48 0Z" p-id="1996" fill="#ffffff"></path><path d="M307.2 368.64m-10.24 0a10.24 10.24 0 1 0 20.48 0 10.24 10.24 0 1 0-20.48 0Z" p-id="1997" fill="#ffffff"></path><path d="M348.16 368.64m-10.24 0a10.24 10.24 0 1 0 20.48 0 10.24 10.24 0 1 0-20.48 0Z" p-id="1998" fill="#ffffff"></path><path d="M389.12 368.64m-10.24 0a10.24 10.24 0 1 0 20.48 0 10.24 10.24 0 1 0-20.48 0Z" p-id="1999" fill="#ffffff"></path><path d="M430.08 368.64m-10.24 0a10.24 10.24 0 1 0 20.48 0 10.24 10.24 0 1 0-20.48 0Z" p-id="2000" fill="#ffffff"></path><path d="M471.04 368.64m-10.24 0a10.24 10.24 0 1 0 20.48 0 10.24 10.24 0 1 0-20.48 0Z" p-id="2001" fill="#ffffff"></path><path d="M512 368.64m-10.24 0a10.24 10.24 0 1 0 20.48 0 10.24 10.24 0 1 0-20.48 0Z" p-id="2002" fill="#ffffff"></path><path d="M552.96 368.64m-10.24 0a10.24 10.24 0 1 0 20.48 0 10.24 10.24 0 1 0-20.48 0Z" p-id="2003" fill="#ffffff"></path><path d="M593.92 368.64m-10.24 0a10.24 10.24 0 1 0 20.48 0 10.24 10.24 0 1 0-20.48 0Z" p-id="2004" fill="#ffffff"></path><path d="M634.88 368.64m-10.24 0a10.24 10.24 0 1 0 20.48 0 10.24 10.24 0 1 0-20.48 0Z" p-id="2005" fill="#ffffff"></path><path d="M675.84 368.64m-10.24 0a10.24 10.24 0 1 0 20.48 0 10.24 10.24 0 1 0-20.48 0Z" p-id="2006" fill="#ffffff"></path><path d="M716.8 368.64m-10.24 0a10.24 10.24 0 1 0 20.48 0 10.24 10.24 0 1 0-20.48 0Z" p-id="2007" fill="#ffffff"></path><path d="M757.76 368.64m-10.24 0a10.24 10.24 0 1 0 20.48 0 10.24 10.24 0 1 0-20.48 0Z" p-id="2008" fill="#ffffff"></path><path d="M798.72 368.64m-10.24 0a10.24 10.24 0 1 0 20.48 0 10.24 10.24 0 1 0-20.48 0Z" p-id="2009" fill="#ffffff"></path><path d="M225.28 655.36m-10.24 0a10.24 10.24 0 1 0 20.48 0 10.24 10.24 0 1 0-20.48 0Z" p-id="2010" fill="#ffffff"></path><path d="M266.24 655.36m-10.24 0a10.24 10.24 0 1 0 20.48 0 10.24 10.24 0 1 0-20.48 0Z" p-id="2011" fill="#ffffff"></path><path d="M307.2 655.36m-10.24 0a10.24 10.24 0 1 0 20.48 0 10.24 10.24 0 1 0-20.48 0Z" p-id="2012" fill="#ffffff"></path><path d="M348.16 655.36m-10.24 0a10.24 10.24 0 1 0 20.48 0 10.24 10.24 0 1 0-20.48 0Z" p-id="2013" fill="#ffffff"></path><path d="M389.12 655.36m-10.24 0a10.24 10.24 0 1 0 20.48 0 10.24 10.24 0 1 0-20.48 0Z" p-id="2014" fill="#ffffff"></path><path d="M430.08 655.36m-10.24 0a10.24 10.24 0 1 0 20.48 0 10.24 10.24 0 1 0-20.48 0Z" p-id="2015" fill="#ffffff"></path><path d="M471.04 655.36m-10.24 0a10.24 10.24 0 1 0 20.48 0 10.24 10.24 0 1 0-20.48 0Z" p-id="2016" fill="#ffffff"></path><path d="M512 655.36m-10.24 0a10.24 10.24 0 1 0 20.48 0 10.24 10.24 0 1 0-20.48 0Z" p-id="2017" fill="#ffffff"></path><path d="M552.96 655.36m-10.24 0a10.24 10.24 0 1 0 20.48 0 10.24 10.24 0 1 0-20.48 0Z" p-id="2018" fill="#ffffff"></path><path d="M593.92 655.36m-10.24 0a10.24 10.24 0 1 0 20.48 0 10.24 10.24 0 1 0-20.48 0Z" p-id="2019" fill="#ffffff"></path><path d="M634.88 655.36m-10.24 0a10.24 10.24 0 1 0 20.48 0 10.24 10.24 0 1 0-20.48 0Z" p-id="2020" fill="#ffffff"></path><path d="M675.84 655.36m-10.24 0a10.24 10.24 0 1 0 20.48 0 10.24 10.24 0 1 0-20.48 0Z" p-id="2021" fill="#ffffff"></path><path d="M716.8 655.36m-10.24 0a10.24 10.24 0 1 0 20.48 0 10.24 10.24 0 1 0-20.48 0Z" p-id="2022" fill="#ffffff"></path><path d="M757.76 655.36m-10.24 0a10.24 10.24 0 1 0 20.48 0 10.24 10.24 0 1 0-20.48 0Z" p-id="2023" fill="#ffffff"></path><path d="M798.72 655.36m-10.24 0a10.24 10.24 0 1 0 20.48 0 10.24 10.24 0 1 0-20.48 0Z" p-id="2024" fill="#ffffff"></path><path d="M403.456 501.76h-102.4v49.152c0 6.144 4.096 10.24 10.24 10.24h83.968c4.096 0 6.144 0 8.192-2.048 2.048-2.048 4.096-14.336 6.144-30.72l12.288 4.096c-2.048 20.48-4.096 32.768-8.192 36.864-4.096 4.096-8.192 6.144-14.336 6.144H307.2c-12.288 0-18.432-6.144-18.432-18.432V471.04h12.288v24.576h90.112v-43.008h-110.592v-12.288h122.88v61.44zM505.856 425.984h12.288v20.48h63.488v12.288h-63.488v24.576h45.056v10.24c-8.192 18.432-22.528 34.816-38.912 47.104 8.192 4.096 18.432 10.24 26.624 12.288 10.24 4.096 24.576 8.192 36.864 12.288l-6.144 10.24c-14.336-4.096-28.672-8.192-40.96-14.336-10.24-4.096-18.432-8.192-26.624-14.336-18.432 12.288-40.96 20.48-67.584 28.672l-6.144-10.24c24.576-6.144 47.104-14.336 63.488-24.576-8.192-6.144-16.384-14.336-22.528-22.528-6.144-8.192-10.24-16.384-12.288-24.576h-12.288v-10.24h51.2v-24.576h-63.488v-12.288h63.488v-20.48z m43.008 69.632h-69.632c2.048 8.192 8.192 16.384 14.336 22.528 6.144 6.144 12.288 12.288 20.48 16.384 14.336-10.24 26.624-22.528 34.816-38.912zM649.216 430.08c-4.096 10.24-8.192 20.48-14.336 32.768v114.688h-12.288v-94.208c-6.144 8.192-12.288 16.384-20.48 24.576l-4.096-12.288c16.384-20.48 30.72-43.008 36.864-69.632l14.336 4.096z m2.048 32.768h63.488v-34.816h12.288v34.816h24.576v12.288h-24.576v86.016c0 10.24-6.144 16.384-16.384 16.384h-24.576l-2.048-12.288h22.528c6.144 0 8.192-2.048 8.192-8.192v-81.92h-63.488v-12.288z m16.384 28.672c12.288 14.336 22.528 28.672 28.672 38.912l-10.24 6.144c-6.144-12.288-16.384-24.576-28.672-38.912l10.24-6.144z" p-id="2025" fill="#ffffff"></path></svg>