<?xml version="1.0" standalone="no"?><!DOCTYPE svg PUBLIC "-//W3C//DTD SVG 1.1//EN" "http://www.w3.org/Graphics/SVG/1.1/DTD/svg11.dtd"><svg t="1500428911418" class="icon" style="" viewBox="0 0 1024 1024" version="1.1" xmlns="http://www.w3.org/2000/svg" p-id="3079" xmlns:xlink="http://www.w3.org/1999/xlink" width="16" height="16"><defs><style type="text/css"></style></defs><path d="M899.618667 641.127939c4.231371 3.322675 8.466835 7.02602 12.549827 10.353812 27.520797 22.607904 38.406728 35.456536 39.315424 36.517705l0 0 0 0 0 0c0 0 2.719948 2.951215 4.839215 5.596462 1.662873 1.434675 2.719948 2.873444 3.77907 3.930519 0.150426 0.831948 1.059122 1.511423 1.059122 1.893116 1.054005 1.059122 1.511423 1.812275 2.420119 2.87242l5.739724 8.541537 0 0.60989c11.037381 23.209608 3.177366 53.527101-4.231371 68.87567-12.55392 27.214828-36.288484 54.735625-54.586223 71.062476-36.288484 33.871435-86.039585 72.279187-148.335397 72.279187-6.650467 0-13.305027-0.301875-19.956517-1.059122-45.215808-5.898337-114.315582-33.263591-190.223413-75.149561-81.951477-45.359071-160.957879-102.970186-222.575238-161.2618C267.722996 627.590622 207.393979 552.517809 159.308821 474.721978c-44.228317-72.126714-73.259514-138.126894-79.307254-181.674713-4.00522-28.65462 2.873444-60.563354 20.412912-91.707678 15.650445-28.203342 38.633902-55.19202 66.833151-78.627778 1.589195-1.210571 3.327792-2.645247 4.913916-4.160763 21.62246-17.839297 40.525995-33.339316 71.522963-44.605917 11.037381-4.76349 21.24486-7.028067 31.375591-7.028067 9.449209 0 18.975167 1.888 28.123524 5.817496l0.378623 0c4.00522 1.892093 11.037381 5.596462 12.625552 6.655584 5.519714 2.645247 34.776038 17.993816 67.13605 60.783365 10.508331 14.06432 26.761504 37.122479 38.709627 57.230446 19.805068 34.024931 32.810267 63.283302 33.491789 64.719001l0.226151 0.832971 2.645247 7.709589c8.242731 21.321608 3.328815 43.320645-13.378705 59.272965-0.909719 0.832971-1.968841 1.893116-1.968841 1.893116l-1.434675 1.434675-1.210571 0.828878c-0.530073 0.682545-1.965771 1.665942-2.874467 2.498914-2.569522 2.263553-3.325745 2.946099-4.309142 3.704368l-0.604774 0.451278c-10.583033 6.80601-14.591323 9.070586-18.674315 11.18883-2.795673 1.665942-5.594415 3.101641-11.793604 7.03216l-0.453325 0c-10.432607 6.65456-20.488637 10.586103-31.072693 14.741749-8.241708 3.327792-17.767666 6.881734-29.185716 12.704346-16.706497 8.086166-17.161868 30.844495-13.757329 38.558178 20.409842 44.983517 56.398498 91.251284 117.107161 148.711973 53.527101 50.655703 106.148575 83.241866 150.749376 108.4899 4.994758 2.951215 10.586103 4.384867 16.182564 4.384867 15.57472 0 30.692023-12.019755 37.347606-24.26873 5.291516-9.148357 9.978259-18.902512 14.517645-27.369348 3.172249-6.876618 6.65149-13.532201 9.827833-19.506263l0 0c7.708566-13.908778 13.455453-23.057135 17.23657-28.199249 2.417049-3.554966 4.687766-6.881734 7.407714-9.827833 6.804986-9.529027 17.392112-17.618263 28.882817-21.549805 6.348592-2.26867 13.455453-3.326768 21.469987-3.326768 9.827833 0 18.747993 1.892093 26.157753 5.445012l19.354813 9.902534-0.300852 0c1.659803 0.677429 3.176342 1.436722 4.838192 2.494821 2.119267 1.511423 5.597485 3.326768 9.226129 5.820566 6.952342 4.539386 18.296715 11.413957 31.602765 20.338211 2.113127 1.434675 4.380774 3.096525 6.800893 4.76349M726.939839 604.155886c-1.360997 1.888-8.165983 11.037381-19.053961 30.315446-3.021823 5.215792-5.897314 11.413957-9.070586 18.069541-4.686742 8.692986-10.131755 19.052938-15.271822 29.031197-12.549827 22.228257-39.312354 44.151569-71.822792 44.151569-12.248975 0-24.495904-3.248997-35.837206-9.523911-46.26879-26.311249-101.536534-60.331064-158.084435-113.863281-64.566528-61.617359-103.350856-110.98779-126.032438-161.186076-5.820566-13.307074-6.728238-30.543643-2.344395-46.64946 5.14109-19.730367 17.61724-35.07996 34.703383-43.62252 12.853749-6.199189 23.058159-10.129708 32.05609-13.908778 9.677407-3.704368 17.615193-7.03216 25.25008-11.343349 7.18361-4.381797 10.660804-6.65149 13.535271-8.086166 3.629667-1.893116 6.502088-3.554966 15.271822-9.150404 0.530073-0.376577 1.059122-1.059122 1.814322-1.888 1.890047-1.439792 2.949168-2.494821 3.857864-2.876514 0.527003-0.677429 1.057075-1.434675 1.586125-1.886977l0.379647-0.227174c5.214768-4.762467 6.349615-10.359952 3.704368-17.014512l-0.379647-0.979304-2.26867-6.279007c-1.964748-4.758374-13.986549-30.693046-30.844495-59.725266-9.30083-15.34857-23.287379-36.515658-36.138058-53.526077-27.217898-36.289508-51.184753-48.687886-52.772924-49.370431l-0.7552-0.376577c-2.795673-1.515516-8.089235-4.160763-10.733459-5.596462-4.236488-1.434675-8.467859-2.494821-12.626575-2.494821-4.838192 0-10.130731 1.435699-16.405645 3.930519l-0.908696 0.381693c-25.02393 9.145287-39.84345 21.617343-60.632939 38.553061-1.588171 1.515516-3.327792 2.951215-4.913916 4.010337-50.200332 41.429575-78.930677 94.126774-73.262584 134.422526 5.29254 37.725206 32.964786 100.175537 73.789587 166.556387 46.345538 75.074859 104.33323 147.277298 163.531494 203.673749 59.34869 56.401568 135.707798 111.438045 215.244272 155.292855 70.160943 39.311331 135.781476 65.166185 176.153976 70.459748 4.687766 0.753153 9.677407 0.909719 14.516622 0.909719 38.099736 0 75.756381-18.903535 122.17662-61.84658 14.515598-13.150508 35.231409-36.96796 45.209668-58.96802 6.354731-12.476149 7.714705-29.713742 3.778046-35.536354l-3.778046-4.762467 0-0.376577-0.300852-0.3776c-1.512447-1.89107-4.687766-5.820566-7.407714-8.766664 0 0-9.677407-11.418051-34.628682-31.909757-23.587208-19.72832-50.349735-39.617299-69.702502-52.315506-21.925359-14.741749-38.409798-24.645306-41.886993-26.761504l-18.446118-9.529027c-1.059122-0.376577-4.386914-1.433652-8.769734-1.433652-3.476171 0-6.348592 0.602727-8.465812 1.433652-4.538363 1.435699-9.074679 5.439896-10.133801 7.634888L726.939839 604.155886 726.939839 604.155886z" p-id="3080" fill="#369be9"></path></svg>