<?xml version="1.0" standalone="no"?><!DOCTYPE svg PUBLIC "-//W3C//DTD SVG 1.1//EN" "http://www.w3.org/Graphics/SVG/1.1/DTD/svg11.dtd"><svg t="1501037504857" class="icon" style="" viewBox="0 0 1024 1024" version="1.1" xmlns="http://www.w3.org/2000/svg" p-id="903" xmlns:xlink="http://www.w3.org/1999/xlink" width="16" height="16"><defs><style type="text/css"></style></defs><path d="M864 928 864 800 928 800 928 928 864 928ZM672 736 672 672 608 672 608 928 544 928 544 672 544 544 608 544 736 544 736 672 864 672 864 544 928 544 928 736 864 736 672 736ZM544 96 928 96 928 480 544 480 544 96ZM608 416 864 416 864 160 608 160 608 416ZM672 224 800 224 800 352 672 352 672 224ZM96 544 480 544 480 928 96 928 96 544ZM160 864 416 864 416 608 160 608 160 864ZM224 672 352 672 352 800 224 800 224 672ZM96 96 480 96 480 480 96 480 96 96ZM160 416 416 416 416 160 160 160 160 416ZM224 224 352 224 352 352 224 352 224 224ZM800 928 736 928 736 800 800 800 800 928Z" p-id="904" fill="#BABABA"></path></svg>