<?xml version="1.0" standalone="no"?><!DOCTYPE svg PUBLIC "-//W3C//DTD SVG 1.1//EN" "http://www.w3.org/Graphics/SVG/1.1/DTD/svg11.dtd"><svg t="1499660380765" class="icon" style="" viewBox="0 0 1024 1024" version="1.1" xmlns="http://www.w3.org/2000/svg" p-id="1808" xmlns:xlink="http://www.w3.org/1999/xlink" width="32" height="32"><defs><style type="text/css"></style></defs><path d="M871.549889 958.835861H148.766209c-47.521317 0-86.045725-38.522362-86.045725-86.045725V679.710676c0.12075 0.053212 0.24764 0.073678 0.36839 0.12689 1.848091-17.267269 16.294105-30.766724 34.04949-30.766724 19.008936 0 34.417881 15.410991 34.417881 34.417881V838.371232c0 28.513404 23.115464 51.627844 51.627844 51.627845h653.946896c28.513404 0 51.627844-23.113417 51.627845-51.627845V683.489746c0-19.007913 15.408945-34.417881 34.41788-34.417881 18.824741 0 34.07098 15.128559 34.364669 33.882692 0.017396 0 0.035816 0 0.053212-0.002047V872.79116c0.001023 47.52234-38.523385 86.044702-86.044702 86.044701z m51.626821-413.018661H97.138364c-19.008936 0-34.417881-15.408945-34.41788-34.417881s15.408945-34.417881 34.41788-34.41788h826.038346c19.008936 0 34.417881 15.408945 34.417881 34.41788s-15.408945 34.417881-34.417881 34.417881z m0-172.09145c-19.008936 0-34.417881-15.408945-34.41788-34.417881V184.42536c0-28.512381-23.113417-51.627844-51.627845-51.627845H183.184089c-28.512381 0-51.627844 23.115464-51.627844 51.627845V339.307869c0 19.008936-15.408945 34.417881-34.417881 34.417881-18.824741 0-34.07098-15.126512-34.364669-33.882692-0.017396 0.002047-0.035816 0.002047-0.053211 0.002047V150.007479c0-47.521317 38.524408-86.045725 86.045725-86.045725h722.78368c47.521317 0 86.045725 38.524408 86.045725 86.045725v189.837626c-0.017396 0-0.035816 0-0.053212-0.002047-0.294712 18.756179-15.540951 33.882692-34.365692 33.882692z" p-id="1809" fill="#bfbfbf"></path></svg>