<?xml version="1.0" standalone="no"?><!DOCTYPE svg PUBLIC "-//W3C//DTD SVG 1.1//EN" "http://www.w3.org/Graphics/SVG/1.1/DTD/svg11.dtd"><svg t="1500015496595" class="icon" style="" viewBox="0 0 1024 1024" version="1.1" xmlns="http://www.w3.org/2000/svg" p-id="1700" xmlns:xlink="http://www.w3.org/1999/xlink" width="16" height="16"><defs><style type="text/css"></style></defs><path d="M32 205.6c-12.8 0-24-10.4-24-24 0-12.8 10.4-24 24-24l940 1.6c12.8 0 24 10.4 24 24 0 12.8-10.4 24-24 24L32 205.6zM183.2 282.4c0-12.8 10.4-24 24-24s24 10.4 24 24V968l579.2-5.6V289.6c0-12.8 10.4-24 24-24s24 10.4 24 24v720l-673.6 7.2V282.4z" fill="#8a8a8a" p-id="1701"></path><path d="M682.4 871.2c-12.8 0-24-10.4-24-24V372c0-12.8 10.4-24 24-24 12.8 0 24 10.4 24 24v475.2c0 12.8-10.4 24-24 24zM367.2 871.2c-12.8 0-24-10.4-24-24V372c0-12.8 10.4-24 24-24s24 10.4 24 24v475.2c0 12.8-10.4 24-24 24zM524.8 871.2c-12.8 0-24-10.4-24-24V372c0-12.8 10.4-24 24-24 12.8 0 24 10.4 24 24v475.2c0 12.8-10.4 24-24 24zM652 168.8v-52.8c0-16-12.8-28.8-28.8-28.8H418.4c-16 0-28.8 12.8-28.8 28.8v46.4h-47.2v-46.4C342.4 74.4 376 40 418.4 40h204.8c42.4 0 76 34.4 76 76.8v52.8h-47.2z" fill="#8a8a8a" p-id="1702"></path></svg>