<?xml version="1.0" standalone="no"?><!DOCTYPE svg PUBLIC "-//W3C//DTD SVG 1.1//EN" "http://www.w3.org/Graphics/SVG/1.1/DTD/svg11.dtd"><svg t="1501657448961" class="icon" style="" viewBox="0 0 1024 1024" version="1.1" xmlns="http://www.w3.org/2000/svg" p-id="12011" xmlns:xlink="http://www.w3.org/1999/xlink" width="16" height="16"><defs><style type="text/css"></style></defs><path d="M512 0c-282.769561 0-512 229.224659-512 512 0 282.763781 229.230439 512 512 512s512-229.224659 512-511.99422S794.769561 0 512 0z m180.505966 619.373017a31.968572 31.968572 0 0 1 0 45.24498 31.980132 31.980132 0 0 1-45.244979 0l-135.602001-135.578881-136.497883 136.497883a32.222887 32.222887 0 0 1-45.603332 0 32.234447 32.234447 0 0 1 0-45.614892l136.497883-136.515223-135.578881-135.573101a31.997471 31.997471 0 1 1 45.250759-45.250759l135.584661 135.584661 137.520924-137.520924a32.269126 32.269126 0 0 1 45.609112 0 32.240227 32.240227 0 0 1 0 45.626452l-137.497804 137.497804 135.561541 135.602z" p-id="12012" fill="#FF8E3B"></path></svg>