<?xml version="1.0" standalone="no"?><!DOCTYPE svg PUBLIC "-//W3C//DTD SVG 1.1//EN" "http://www.w3.org/Graphics/SVG/1.1/DTD/svg11.dtd"><svg t="1499414962262" class="icon" style="" viewBox="0 0 1024 1024" version="1.1" xmlns="http://www.w3.org/2000/svg" p-id="2269" xmlns:xlink="http://www.w3.org/1999/xlink" width="16" height="16"><defs><style type="text/css"></style></defs><path d="M217.6 106.7008h311.4496c26.0608 0 46.9504 20.8896 46.9504 46.8992v226.1504a46.7968 46.7968 0 0 1-46.9504 46.9504H217.6a46.7968 46.7968 0 0 1-46.9504-46.9504V153.6c0-26.0096 20.9408-46.8992 46.9504-46.8992z m465.0496 810.6496V448h32c17.7152 0 32 14.336 32 32v298.6496a138.6496 138.6496 0 1 0 277.3504 0V204.3904c0-30.1056-12.3904-57.1904-32.256-76.5952L878.7456 15.36c-20.48-20.48-53.5552-20.48-74.0352 0-20.48 20.48-20.48 53.5552 0 74.0352l73.4208 73.5744-54.2208 56.5248a47.0016 47.0016 0 0 0 0 65.536c8.704 9.3184 20.48 13.824 32.256 13.6192l61.2352-0.2048v480.256a31.9488 31.9488 0 1 1-64 0V479.9488a138.6496 138.6496 0 0 0-138.7008-138.6496h-32v-256c0-47.104-38.144-85.3504-85.2992-85.3504h-448C102.1952 0 64 38.1952 64 85.3504v832h-10.6496a53.3504 53.3504 0 0 0 0 106.6496h640a53.3504 53.3504 0 0 0 0-106.6496h-10.7008z" p-id="2270" fill="#369be9"></path></svg>