<?xml version="1.0" standalone="no"?><!DOCTYPE svg PUBLIC "-//W3C//DTD SVG 1.1//EN" "http://www.w3.org/Graphics/SVG/1.1/DTD/svg11.dtd"><svg t="1500432665417" class="icon" style="" viewBox="0 0 1024 1024" version="1.1" xmlns="http://www.w3.org/2000/svg" p-id="11435" xmlns:xlink="http://www.w3.org/1999/xlink" width="16" height="16"><defs><style type="text/css"></style></defs><path d="M511.99984 511.99984m-511.99984 0a511.99984 511.99984 0 1 0 1023.99968 0 511.99984 511.99984 0 1 0-1023.99968 0Z" fill="#CCCCCC" p-id="11436"></path><path d="M635.999801 784.799755c0-33.59999-15.199995-56.799982 0-73.599977 18.399994-19.999994 41.599987-76.799976 48.799985-123.199962 3.199999-18.399994 48.799985-24.799992 48.799985-73.599977 23.199993-24.799992 0-67.199979 0-98.399969 0-75.199977 7.999998-147.199954-24.799992-198.399938C611.199809 70.399978 415.99987 71.999978 314.399902 217.599932c-30.399991 44.799986-24.799992 121.599962-24.799992 198.399938 0 30.399991-26.399992 71.999978 0 98.399969 0 48.799985 43.199987 47.999985 48.799984 73.599977 10.399997 47.999985 24.799992 98.399969 48.799985 123.199962 24.799992 24.799992 0 39.999988 0 73.599977-1.6 109.599966-106.399967 138.399957-172.799946 144.799955a509.519841 509.519841 0 0 0 295.999908 94.39997c110.399966 0 212.799934-35.199989 295.999907-94.39997-63.19998-7.999998-168.799947-37.599988-170.399947-144.799955z" fill="#F5F5F5" p-id="11437"></path></svg>