<?xml version="1.0" standalone="no"?><!DOCTYPE svg PUBLIC "-//W3C//DTD SVG 1.1//EN" "http://www.w3.org/Graphics/SVG/1.1/DTD/svg11.dtd"><svg t="1502017903880" class="icon" style="" viewBox="0 0 1024 1024" version="1.1" xmlns="http://www.w3.org/2000/svg" p-id="1573" xmlns:xlink="http://www.w3.org/1999/xlink" width="16" height="16"><defs><style type="text/css"></style></defs><path d="M110.933333 113.777778C65.422222 113.777778 28.444444 150.755556 28.444444 196.266667v631.466666C28.444444 873.244444 65.422222 910.222222 110.933333 910.222222h34.133334l204.8-796.444444H110.933333z" fill="#CFCFCF" p-id="1574"></path><path d="M349.866667 113.777778L145.066667 910.222222h349.866666l190.577778-796.444444z" fill="#BFBFBF" p-id="1575"></path><path d="M904.533333 113.777778h-219.022222l-190.577778 796.444444h412.444445c45.511111 0 82.488889-36.977778 82.488889-82.488889V196.266667c-2.844444-45.511111-39.822222-82.488889-85.333334-82.488889z" fill="#B1B1B1" p-id="1576"></path><path d="M335.644444 557.511111h45.511112c0 2.844444-2.844444 5.688889-2.844445 8.533333-2.844444 8.533333-5.688889 14.222222-5.688889 17.066667h39.822222l-5.688888 17.066667h-42.666667s0 2.844444-2.844445 2.844444c-5.688889 8.533333-8.533333 17.066667-14.222222 19.911111-11.377778 14.222222-19.911111 19.911111-28.444444 25.6h73.955555l-5.688889 17.066667h-31.288888l-11.377778 42.666667h36.977778l-5.688889 17.066666H341.333333l-22.755555 79.644445c0 8.533333 2.844444 11.377778 11.377778 11.377778 5.688889-2.844444 14.222222-8.533333 19.911111-17.066667l8.533333 5.688889c-17.066667 22.755556-36.977778 34.133333-56.888889 36.977778-22.755556-2.844444-31.288889-14.222222-25.6-34.133334l19.911111-79.644444H258.844444l5.688889-17.066667h36.977778l11.377778-42.666667h-25.6l2.844444-14.222222c-8.533333-5.688889-8.533333-14.222222-2.844444-28.444444 5.688889-19.911111 19.911111-31.288889 42.666667-39.822222 0-2.844444 2.844444-5.688889 2.844444-11.377778 0-8.533333 2.844444-14.222222 2.844444-17.066667z m-28.444444 71.111111c5.688889-8.533333 11.377778-17.066667 14.222222-28.444444-17.066667 2.844444-25.6 11.377778-31.288889 25.6-2.844444 11.377778-2.844444 17.066667 2.844445 17.066666 2.844444 0 8.533333-5.688889 14.222222-14.222222z m122.311111-65.422222H540.444444c22.755556 0 31.288889 11.377778 28.444445 34.133333l-19.911111 68.266667c-8.533333 22.755556-22.755556 34.133333-42.666667 34.133333h-65.422222l-25.6 99.555556c-2.844444 8.533333 0 14.222222 8.533333 14.222222 5.688889 0 11.377778-5.688889 19.911111-17.066667l5.688889 5.688889c-17.066667 22.755556-36.977778 34.133333-56.888889 36.977778-22.755556-2.844444-31.288889-14.222222-25.6-36.977778l62.577778-238.933333zM540.444444 711.111111c-14.222222 19.911111-25.6 36.977778-39.822222 48.355556 11.377778 17.066667 19.911111 34.133333 25.6 48.355555l-48.355555 31.288889c0-22.755556-2.844444-42.666667-5.688889-59.733333-8.533333 5.688889-17.066667 5.688889-25.6 5.688889-14.222222 0-22.755556-8.533333-17.066667-28.444445 5.688889-19.911111 14.222222-28.444444 31.288889-31.288889 5.688889 0 14.222222 2.844444 19.911111 8.533334 5.688889-8.533333 11.377778-17.066667 14.222222-25.6H540.444444z m-99.555555 65.422222c5.688889 0 14.222222-5.688889 22.755555-19.911111-2.844444-8.533333-8.533333-14.222222-14.222222-14.222222-8.533333 2.844444-17.066667 8.533333-17.066666 17.066667-2.844444 11.377778 0 17.066667 8.533333 17.066666z m45.511111-91.022222c5.688889 0 11.377778-2.844444 14.222222-11.377778l8.533334-34.133333h-56.888889l-11.377778 45.511111h45.511111z m-17.066667-105.244444l-11.377777 39.822222h56.888888l8.533334-28.444445c0-5.688889-2.844444-11.377778-8.533334-11.377777h-45.511111zM631.466667 563.2h128l-5.688889 17.066667h-11.377778l-48.355556 176.355555h11.377778l-2.844444 11.377778s-2.844444 2.844444-5.688889 2.844444c-2.844444 2.844444-5.688889 2.844444-8.533333 2.844445l-19.911112 68.266667h-39.822222l14.222222-48.355556-76.8 25.6 2.844445-48.355556h17.066667l51.2-187.733333h-14.222223l8.533334-19.911111z m42.666666 71.111111h-8.533333l-34.133333 130.844445c5.688889 0 14.222222 0 22.755555-2.844445l11.377778-36.977778h-8.533333c-8.533333 0-11.377778-5.688889-5.688889-19.911111 2.844444-5.688889 5.688889-11.377778 8.533333-19.911111 11.377778-22.755556 17.066667-39.822222 19.911111-42.666667 2.844444-2.844444 2.844444-5.688889 2.844445-5.688888-2.844444-2.844444-5.688889-2.844444-8.533334-2.844445z m28.444445-56.888889h-22.755556l-11.377778 39.822222h8.533334c11.377778-2.844444 14.222222 5.688889 2.844444 25.6-8.533333 14.222222-14.222222 34.133333-22.755555 54.044445-2.844444 8.533333-2.844444 14.222222 2.844444 11.377778h8.533333l34.133334-130.844445z m110.933333-19.911111c0 14.222222 2.844444 22.755556 2.844445 28.444445 0 8.533333 5.688889 11.377778 11.377777 5.688888 8.533333-5.688889 19.911111-14.222222 34.133334-25.6 14.222222-8.533333 25.6-8.533333 31.288889-2.844444 8.533333 5.688889 8.533333 17.066667 2.844444 28.444444 0 5.688889-8.533333 14.222222-22.755556 25.6h25.6l-5.688888 17.066667h-51.2l-14.222223 56.888889h56.888889l-8.533333 19.911111h-56.888889c-2.844444 5.688889-5.688889 14.222222-8.533333 19.911111 19.911111 11.377778 34.133333 39.822222 42.666666 85.333334l-54.044444 25.6c5.688889-34.133333 5.688889-65.422222 0-88.177778-17.066667 36.977778-39.822222 62.577778-65.422222 76.8-31.288889 14.222222-45.511111 5.688889-42.666667-25.6 8.533333-36.977778 36.977778-62.577778 76.8-79.644445 0 0 0-2.844444 2.844444-8.533333 2.844444-5.688889 2.844444-8.533333 2.844445-11.377778h-54.044445l5.688889-17.066666h54.044445l14.222222-56.888889h-51.2l5.688889-17.066667h71.111111c17.066667-17.066667 28.444444-28.444444 31.288889-34.133333 2.844444-2.844444 2.844444-5.688889 0-5.688889h-5.688889c-5.688889 2.844444-17.066667 11.377778-34.133333 25.6-14.222222 11.377778-25.6 14.222222-34.133334 5.688889-8.533333-5.688889-11.377778-22.755556-11.377777-42.666667l48.355555-5.688889z m-48.355555 179.2c-22.755556 5.688889-42.666667 19.911111-59.733334 42.666667-11.377778 22.755556-14.222222 36.977778-5.688889 45.511111 8.533333 2.844444 19.911111-2.844444 31.288889-19.911111 14.222222-19.911111 25.6-42.666667 34.133334-68.266667z" fill="#FFFFFF" p-id="1577"></path></svg>